# Blender v2.74 (sub 0) OBJ File: ''
# www.blender.org
mtllib unit.mtl
o Cone
v 0.000000 -0.707107 -1.000000
v 0.866025 -0.707107 0.500000
v 0.000000 0.707107 0.000000
v -0.866025 -0.707107 0.500000
v 0.000000 -0.707107 -1.000000
v 0.000000 -0.707107 -1.000000
v 0.866025 -0.707107 0.500000
v 0.866025 -0.707107 0.500000
v 0.000000 0.707107 0.000000
v 0.000000 0.707107 0.000000
v -0.866025 -0.707107 0.500000
v -0.866025 -0.707107 0.500000
vt 0.999814 0.500186
vt 0.750000 0.932876
vt 0.500186 0.500186
vt 0.866111 0.000186
vt 0.865939 0.499814
vt 0.433335 0.249851
vt 0.000186 0.249851
vt 0.432963 0.000186
vt 0.432790 0.499814
vt 0.250000 0.500186
vt 0.499814 0.932876
vt 0.000186 0.932876
vn -0.000000 0.333300 0.942800
vn 0.816500 0.333300 -0.471400
vn -0.816500 0.333300 -0.471400
vn 0.000000 -1.000000 -0.000000
usemtl Material.001
s off
f 7/1/1 3/2/1 4/3/1
f 1/4/2 9/5/2 2/6/2
f 11/7/3 10/8/3 5/9/3
f 6/10/4 8/11/4 12/12/4
